<svg xmlns="http://www.w3.org/2000/svg" viewBox="0 0 64 64"><g id="Outline"><path d="M44.2,29.6a1,1,0,0,0,1.6,0l6-8a1,1,0,0,0,0-1.2l-6-8a1.036,1.036,0,0,0-1.6,0l-6,8a1,1,0,0,0,0,1.2Zm.8-2.267-4.319-5.758,3.8,2.282a1,1,0,0,0,1.03,0l3.8-2.282ZM46,16l2.707,3.61L46,21.234Zm-2,5.234L41.293,19.61,44,16Z" id="id_101" style="fill: rgb(24, 135, 124);"></path><path d="M45,34A13,13,0,1,0,32,21,13.015,13.015,0,0,0,45,34Zm0-24A11,11,0,1,1,34,21,11.013,11.013,0,0,1,45,10Z" id="id_102"></path><path d="M61.372,42.509a4.978,4.978,0,0,0-5.824-2.559l-13.9,3.988L41,43.953V43a5.006,5.006,0,0,0-5-5H28.441a9.765,9.765,0,0,0-6.382-3,9.625,9.625,0,0,0-6.41,2H14V35a1,1,0,0,0-1-1H3a1,1,0,0,0-1,1V59a1,1,0,0,0,1,1H13a1,1,0,0,0,1-1V54.263l15.771,3.711A1.044,1.044,0,0,0,30,58a1,1,0,0,0,.387-.078l31-13a1,1,0,0,0,.508-1.369ZM12,58H4V36h8Zm17.913-2.048L14,52.208V39h2a1.006,1.006,0,0,0,.644-.234,7.513,7.513,0,0,1,10.6.883A1,1,0,0,0,28,40h8a3,3,0,0,1,3,3v1H28a1,1,0,0,0,0,2H40a.937.937,0,0,0,.128-.026l1.7-.039a1.026,1.026,0,0,0,.252-.039L56.1,41.872A2.98,2.98,0,0,1,59.583,43.4l.044.088Z" id="id_103"></path><path d="M45,38A17,17,0,1,0,28,21,17.019,17.019,0,0,0,45,38ZM45,6A15,15,0,1,1,30,21,15.017,15.017,0,0,1,45,6Z" id="id_104"></path></g></svg>