<svg viewBox="0 0 512 512" xml:space="preserve" xmlns="http://www.w3.org/2000/svg"><path d="M135.955 290.443c-1.418-1.608-3.515-2.471-5.651-2.27a6.77 6.77 0 0 0-5.19 3.185l-52.079 84.139a6.772 6.772 0 0 0 .597 7.95l33.714 39.688-18.456 15.496c-2.991 2.508-7.474 2.125-9.995-.854l-19.281-22.803a7.082 7.082 0 0 1 .639-9.84l3.395-3.097c2.764-2.521 2.962-6.806.44-9.569s-6.808-2.964-9.57-.44l-3.393 3.095a20.583 20.583 0 0 0-1.857 28.599l19.282 22.803c4.075 4.819 9.915 7.304 15.791 7.304 3.68 0 7.369-.99 10.653-2.975l24.256 12.688a22.605 22.605 0 0 0 10.726 2.713c4.431 0 8.846-1.311 12.67-3.896l11.14-7.533a6.776 6.776 0 0 0 .203-11.08l-12.471-9.12a6.775 6.775 0 1 0-7.997 10.937l4.697 3.434-3.163 2.141c-2.806 1.896-6.403 2.084-9.455.438l-19.132-10.008 14.014-11.766 92.41-38.564a6.773 6.773 0 0 0 2.471-10.732l-79.408-90.063zm-17.076 125.342L87.15 378.434l44.68-72.184 67.119 76.12-80.07 33.415zM192.172 328.264a6.752 6.752 0 0 0 4.511-1.723l9.674-8.642a6.774 6.774 0 1 0-9.025-10.104l-9.674 8.642a6.774 6.774 0 0 0 4.514 11.827zM232.138 349.051l-12.69 2.686a6.775 6.775 0 0 0 1.395 13.403c.464 0 .937-.05 1.409-.149l12.69-2.686a6.775 6.775 0 0 0 5.225-8.029 6.765 6.765 0 0 0-8.029-5.225zM158.807 295.517a6.74 6.74 0 0 0 2.74.583 6.776 6.776 0 0 0 6.197-4.032l5.255-11.86a6.773 6.773 0 0 0-3.449-8.938 6.773 6.773 0 0 0-8.938 3.449l-5.255 11.86a6.775 6.775 0 0 0 3.45 8.938zM448.713 234.543a102.737 102.737 0 0 0-22.075-25.56 6.768 6.768 0 0 0-9.54.879 6.773 6.773 0 0 0 .877 9.539 89.108 89.108 0 0 1 17.695 19.884c-17.314 19.389-37.398 34.184-61.109 44.978v-3.239c0-33.218-14.648-64.448-40.189-85.688a6.77 6.77 0 0 0-9.54.879 6.773 6.773 0 0 0 .877 9.54c22.436 18.655 35.304 46.091 35.304 75.269v11.934c0 .264.048.512.077.768-.13 1.083-.03 2.207.399 3.293a6.779 6.779 0 0 0 6.299 4.277 6.73 6.73 0 0 0 2.496-.48c30.766-12.204 56.113-30.113 77.494-54.749 1.422-1.638 1.889-3.758 1.505-5.732.659-1.86.536-3.979-.57-5.792zM393.896 85.938a50.482 50.482 0 0 1 10.102-1.019c27.623 0 50.094 22.472 50.094 50.094 0 27.623-22.471 50.095-50.094 50.095-10.451 0-20.461-3.184-28.949-9.205a6.773 6.773 0 1 0-7.84 11.049c10.792 7.656 23.514 11.703 36.789 11.703 35.094 0 63.643-28.55 63.643-63.643 0-35.092-28.549-63.642-63.643-63.642-4.311 0-8.624.435-12.819 1.295a6.772 6.772 0 0 0-5.276 7.995 6.764 6.764 0 0 0 7.993 5.278z" fill="#18877c" class="fill-000000"></path><path d="M310.12 183.045c37.854 0 68.649-30.796 68.649-68.649s-30.796-68.649-68.649-68.649-68.649 30.796-68.649 68.649 30.796 68.649 68.649 68.649zm0-123.75c30.383 0 55.101 24.719 55.101 55.101s-24.718 55.101-55.101 55.101-55.101-24.719-55.101-55.101 24.718-55.101 55.101-55.101zM325.531 299.297a142.83 142.83 0 0 1-66.303-8.629v-9.645c0-29.178 12.867-56.613 35.303-75.269a6.775 6.775 0 0 0-8.662-10.419c-25.541 21.239-40.189 52.47-40.189 85.688v3.672c-23.064-11.158-43.028-25.775-59.417-43.572a89.116 89.116 0 0 1 18.858-21.722 6.775 6.775 0 0 0-8.663-10.418 102.65 102.65 0 0 0-23.386 27.771 6.773 6.773 0 0 0 .488 7.494 6.742 6.742 0 0 0 1.732 4.999c19.483 21.475 43.697 38.686 71.966 51.158 19.858 8.761 41.358 13.258 63.006 13.258 5.57 0 11.152-.297 16.717-.898 3.721-.4 6.41-3.74 6.01-7.46s-3.746-6.401-7.46-6.008z" fill="#18877c" class="fill-000000"></path><path d="M219.098 198.655c13.276 0 25.998-4.047 36.789-11.703a6.775 6.775 0 1 0-7.841-11.049c-8.487 6.021-18.498 9.205-28.949 9.205-27.623 0-50.094-22.472-50.094-50.095 0-27.622 22.471-50.094 50.094-50.094 3.4 0 6.799.343 10.102 1.019 3.672.759 7.246-1.613 7.995-5.276a6.774 6.774 0 0 0-5.277-7.995 63.973 63.973 0 0 0-12.82-1.295c-35.093 0-63.643 28.55-63.643 63.642.001 35.091 28.55 63.641 63.644 63.641z" fill="#18877c" class="fill-000000"></path></svg>