<svg data-name="Layer 1" viewBox="0 0 200 200" xmlns="http://www.w3.org/2000/svg"><path d="M75 20H40a20.06 20.06 0 0 0-20 20v35a20.06 20.06 0 0 0 20 20h35a20.06 20.06 0 0 0 20-20V40a20.06 20.06 0 0 0-20-20Zm0 55H40V40h35Zm95-27.5a10 10 0 0 0-10 10V75h-35V40h17.5a10 10 0 0 0 0-20H125a20.06 20.06 0 0 0-20 20v35a20.06 20.06 0 0 0 20 20h35a20.06 20.06 0 0 0 20-20V57.5a10 10 0 0 0-10-10ZM75 105H40a20.06 20.06 0 0 0-20 20v35a20.06 20.06 0 0 0 20 20h35a20.06 20.06 0 0 0 20-20v-35a20.06 20.06 0 0 0-20-20Zm0 55H40v-35h35Zm85-55h-35a20.06 20.06 0 0 0-20 20v35a20.06 20.06 0 0 0 20 20h35a20.06 20.06 0 0 0 20-20v-35a20.06 20.06 0 0 0-20-20Zm0 55h-35v-35h35Z" fill="#18877c" class="fill-000000"></path></svg>