<svg viewBox="0 0 48 48" xmlns="http://www.w3.org/2000/svg" xmlns:xlink="http://www.w3.org/1999/xlink"><defs><radialGradient cx="30" cy="30" gradientUnits="userSpaceOnUse" id="b" r="11"><stop offset=".88" stop-color="#ffffff" class="stop-color-ffffff"></stop><stop offset="1"></stop></radialGradient><symbol data-name="material_system_icon_border" id="a" viewBox="0 0 48 48"><path d="M0 0h48v48H0z" fill="none"></path></symbol></defs><use data-name="material_system_icon_border" height="48" width="48" xlink:href="#a"></use><path d="M4.5 4.5h35v27h-35z" stroke-miterlimit="10" stroke="#ffffff" fill="#18877c" class="fill-009933 stroke-000000"></path><path d="M12 23.44v-4h2.77v-3H9.16a1.4 1.4 0 0 1-1.39 1 1.48 1.48 0 0 1 0-3 1.32 1.32 0 0 1 1.39 1h5.62v-3H9.16a1.4 1.4 0 0 1-1.39 1 1.48 1.48 0 0 1 0-3 1.32 1.32 0 0 1 1.39 1h5.59v-3H9.16a1.4 1.4 0 0 1-1.39 1 1.48 1.48 0 0 1 0-3 1.32 1.32 0 0 1 1.39 1H16v8.7l5 .06V8.58a1.4 1.4 0 0 1-1-1.39 1.48 1.48 0 0 1 3 0 1.32 1.32 0 0 1-1 1.39v7.62h4V9.58a1.4 1.4 0 0 1-1-1.39 1.48 1.48 0 0 1 3 0 1.32 1.32 0 0 1-1 1.39v6.62h3V8.58a1.4 1.4 0 0 1-1-1.39 1.48 1.48 0 0 1 3 0 1.32 1.32 0 0 1-1 1.39v1h6v2.76a1.4 1.4 0 0 1 1 1.39 1.48 1.48 0 1 1-3 0 1.32 1.32 0 0 1 1-1.39v-1.75l-5 .08v6.53H16v2.24h.92a1.4 1.4 0 0 1 1.39-1 1.48 1.48 0 1 1 0 3 1.32 1.32 0 0 1-1.39-1H13v3h2.92a1.4 1.4 0 0 1 1.39-1 1.48 1.48 0 1 1 0 3 1.32 1.32 0 0 1-1.39-1H13v4H9.16a1.4 1.4 0 0 1-1.39 1 1.48 1.48 0 0 1 0-3 1.32 1.32 0 0 1 1.39 1H12v-3H9.16a1.4 1.4 0 0 1-1.39 1 1.48 1.48 0 0 1 0-3 1.32 1.32 0 0 1 1.39 1H12" fill="#f2c200" stroke-width=".1px" stroke-miterlimit="10" stroke="#ffffff" class="fill-ffcc00 stroke-000000"></path><rect height="28" rx="1" ry="1" width="36" x="4" y="4" stroke-linecap="round" stroke-miterlimit="10" stroke="#ffffff" fill="none" class="stroke-000000"></rect><path d="M30 16a14 14 0 1 1-14 14 14 14 0 0 1 14-14Zm11 14a11 11 0 1 0-11 11 11 11 0 0 0 11-11Z" fill-rule="evenodd" stroke="#5e5e46" fill="#f2c200" stroke-linecap="round" stroke-miterlimit="10" class="fill-ad9d4d stroke-1d1d1b"></path><path d="M30 19a11 11 0 1 1-11 11 11 11 0 0 1 11-11Z" fill="url(#b)" stroke="#5e5e46" stroke-linecap="round" stroke-miterlimit="10" class="fillurl(-b) stroke-1d1d1b"></path><path d="m29.96 21 5.51 8.98-.09.05L30 28.16l-.09.03.05-7.19z" fill="#18877c" class="fill-222222"></path><path d="m35.38 30.03.09-.05.03.05-5.62 1.56.03-3.4.09-.03 5.38 1.87z" fill="#ffffff" class="fill-000000"></path><path d="M35.27 31.02 29.88 39v-6.46l5.39-1.52z" fill="#18877c" class="fill-222222"></path><path d="m29.96 21-.05 7.19-5.41 1.88L29.96 21z" fill="#f2c200" class="fill-ad9d4d"></path><path d="m29.91 28.19-.03 3.4-5.38-1.52 5.41-1.88z" fill="#18877c" class="fill-222222"></path><path d="M29.88 32.54V39l-5.38-7.98 5.38 1.52z" fill="#f2c200" class="fill-ad9d4d"></path><path d="m29.88 39-5.38-7.98 5.38 1.52 5.39-1.52L29.88 39zM29.88 32.54V39" stroke-width=".25px" stroke-linecap="round" stroke-miterlimit="10" stroke="#ffffff" fill="none" class="stroke-000000"></path><path d="m35.47 29.98.03.05-5.62 1.56-5.38-1.52L29.96 21l5.51 8.98z" stroke-width=".25px" stroke-linecap="round" stroke-miterlimit="10" stroke="#ffffff" fill="none" class="stroke-000000"></path><path d="m29.96 21-.05 7.19-.03 3.4" stroke-width=".25px" stroke-linecap="round" stroke-miterlimit="10" stroke="#ffffff" fill="none" class="stroke-000000"></path><path d="M35.38 30.03 30 28.16l-.09.03-5.41 1.88" stroke-width=".25px" stroke-linecap="round" stroke-miterlimit="10" stroke="#ffffff" fill="none" class="stroke-000000"></path></svg>