<svg viewBox="0 0 128 128" xml:space="preserve" xmlns="http://www.w3.org/2000/svg" enable-background="new 0 0 128 128"><path d="M69 30.1C58 30.1 49.1 39 49.1 50S58 69.9 69 69.9 88.9 61 88.9 50 80 30.1 69 30.1zm0 31.8c-6.6 0-11.9-5.4-11.9-11.9S62.4 38.1 69 38.1 80.9 43.4 80.9 50 75.6 61.9 69 61.9z" fill="#18877c" class="fill-000000"></path><path d="M42 9h70v110H16V9h8v100h8V1H8v126h112V1H42z" fill="#18877c" class="fill-000000"></path><path d="m51.5 82.6 4.2 6.8c4-2.3 8.6-3.5 13.3-3.5 4.7 0 9.3 1.2 13.3 3.4l4.2-6.8C81.2 79.6 75.2 78 69 78c-6.2 0-12.2 1.6-17.5 4.6z" fill="#18877c" class="fill-000000"></path></svg>